<svg xmlns="http://www.w3.org/2000/svg" width="1024" height="1024" viewBox="0 0 1024 1024" role="img" aria-label="Visual Feedback Studio logo">
  <path fill="currentColor" d="M 697.59 644.79 L 697.84 645.33 A 0.88 0.88 0.0 0 0 698.84 645.80 Q 702.07 644.99 703.00 645.00 Q 734.25 645.25 764.99 644.75 C 768.09 644.70 768.48 646.68 768.44 649.46 Q 768.11 671.91 768.44 693.72 A 1.84 1.84 0.0 0 1 766.41 695.58 Q 760.96 695.01 754.50 694.95 Q 733.44 694.78 712.50 695.10 Q 706.93 695.18 698.73 694.79 A 2.00 2.00 0.0 0 0 696.66 696.57 Q 696.30 699.86 696.27 704.00 Q 696.00 734.52 696.28 765.25 Q 696.30 767.20 694.73 768.29 A 1.32 1.27 -57.8 0 1 693.84 768.51 Q 692.76 768.37 691.75 768.35 Q 682.70 768.14 656.06 768.15 C 653.85 768.15 650.03 769.13 646.94 767.84 A 1.35 1.34 -79.0 0 1 646.10 766.59 L 646.10 379.61 A 0.61 0.61 0.0 0 0 645.71 379.04 Q 642.43 377.80 639.00 378.02 Q 628.23 378.71 619.69 378.48 Q 611.44 378.25 604.31 378.25 Q 461.41 378.26 443.50 378.22 C 411.12 378.15 393.56 378.60 359.50 378.54 Q 354.73 378.53 331.51 378.68 C 310.06 378.82 280.43 377.87 262.00 378.46 Q 260.34 378.51 258.42 378.81 A 2.13 2.13 0.0 0 1 255.96 376.77 Q 255.54 363.65 255.44 334.75 Q 255.43 332.70 256.07 329.72 A 1.75 1.75 0.0 0 1 257.78 328.33 L 321.14 328.42 A 0.87 0.78 48.2 0 1 321.32 328.44 Q 324.36 328.99 326.60 328.84 A 0.79 0.78 2.2 0 0 327.33 328.17 Q 327.72 325.46 327.57 324.40 Q 327.25 322.15 327.25 320.59 Q 327.40 289.06 327.29 258.50 Q 327.28 257.41 329.04 256.15 A 1.53 1.51 -62.6 0 1 329.93 255.86 Q 331.27 255.86 332.49 255.90 C 334.75 255.99 336.90 255.35 338.98 255.48 Q 341.84 255.65 343.02 255.64 Q 361.32 255.39 366.92 255.47 C 369.93 255.51 372.46 254.87 375.41 255.52 A 2.61 2.61 0.0 0 1 377.46 258.08 L 377.17 325.89 A 2.23 2.13 -53.1 0 0 377.23 326.40 L 377.49 327.54 A 1.00 1.00 0.0 0 0 378.47 328.33 L 694.94 328.33 A 1.44 1.44 0.0 0 1 696.38 329.75 C 696.48 337.77 696.18 344.57 696.18 351.10 Q 696.24 603.55 696.26 630.50 Q 696.27 638.54 696.16 642.74 Q 696.14 643.24 697.21 644.27 A 1.89 1.72 11.4 0 1 697.59 644.79 Z"/>
  <path fill="currentColor" d="M 377.20 394.37 Q 377.30 396.67 377.31 398.52 Q 377.45 430.99 377.09 494.86 C 377.07 499.33 377.29 504.57 377.69 509.30 A 1.98 1.97 77.5 0 1 376.41 511.31 C 373.01 512.57 370.98 511.56 367.80 511.64 Q 348.04 512.12 333.08 511.85 A 4.12 3.74 35.7 0 0 332.03 511.97 L 330.57 512.31 A 2.65 2.65 0.0 0 1 327.32 509.69 Q 327.43 501.64 327.13 473.75 Q 326.90 452.08 327.01 429.59 Q 327.03 426.71 327.15 425.92 C 327.40 424.27 327.01 422.96 327.01 421.03 Q 327.01 408.30 327.20 396.79 Q 327.21 395.66 328.89 393.57 A 1.13 1.13 0.0 0 1 329.74 393.16 Q 346.32 393.00 368.98 393.15 Q 374.92 393.19 376.67 393.69 A 0.74 0.74 0.0 0 1 377.20 394.37 Z"/>
  <path fill="currentColor" d="M 631.69 647.17 Q 631.20 648.76 631.19 649.48 Q 631.01 676.83 631.22 694.61 A 1.19 1.19 0.0 0 1 629.97 695.82 C 627.43 695.67 624.48 695.31 622.34 695.28 Q 574.34 694.58 519.64 695.14 C 517.49 695.16 515.70 695.64 514.24 695.74 A 1.38 1.38 0.0 0 1 513.00 695.12 Q 511.69 693.15 511.64 690.81 Q 511.46 682.02 511.55 650.40 C 511.56 647.80 510.90 645.84 514.02 644.77 A 1.89 1.83 -48.7 0 1 514.89 644.70 Q 517.02 645.04 519.25 645.05 Q 534.59 645.08 613.50 645.05 Q 616.12 645.04 629.07 644.59 Q 630.40 644.54 631.55 646.24 A 1.10 1.09 -53.8 0 1 631.69 647.17 Z"/>
</svg>
